<svg width="36" height="28" viewBox="0 0 36 28" fill="none" xmlns="http://www.w3.org/2000/svg">
<path fill-rule="evenodd" clip-rule="evenodd" d="M18.0004 19.8697C16.3592 21.1596 14.3881 21.9617 12.3126 22.1845C10.237 22.4072 8.14057 22.0416 6.26298 21.1293C4.38538 20.2171 2.80236 18.795 1.69484 17.0257C0.587326 15.2564 0 13.2113 0 11.124C0 9.03671 0.587326 6.99155 1.69484 5.22225C2.80236 3.45296 4.38538 2.03092 6.26298 1.11867C8.14057 0.206427 10.237 -0.159218 12.3126 0.0635313C14.3881 0.286274 16.3591 1.08839 18.0003 2.3782C19.6414 1.08838 21.6124 0.286269 23.6879 0.0635291C25.7635 -0.159217 27.8598 0.206434 29.7374 1.11869C31.615 2.03094 33.1979 3.45298 34.3054 5.22227C35.4128 6.99156 36.0001 9.03671 36 11.1239C36.0001 13.2112 35.4128 15.2563 34.3054 17.0256C33.1979 18.7949 31.615 20.217 29.7374 21.1292C27.8598 22.0415 25.7635 22.4071 23.6879 22.1844C21.6124 21.9616 19.6415 21.1595 18.0004 19.8697ZM13.7512 11.124C13.7497 9.43944 14.1315 7.77663 14.8677 6.26143C15.6038 4.74628 16.6751 3.41843 18.0003 2.37842C19.3244 3.41948 20.3948 4.74753 21.1308 6.26244C21.8669 7.7774 22.2493 9.43968 22.2493 11.1239C22.2493 12.8082 21.8669 14.4705 21.1308 15.9855C20.3948 17.5004 19.3244 18.8285 18.0003 19.8695C16.675 18.8295 15.6038 17.5017 14.8677 15.9866C14.1315 14.4713 13.7497 12.8085 13.7512 11.124ZM19.8204 19.7516C21.0372 20.4643 22.3957 20.9144 23.808 21.0659C25.6736 21.2661 27.558 20.9375 29.2457 20.1175C30.9334 19.2975 32.3563 18.0192 33.3517 16.4289C34.3472 14.8385 34.8751 13.0002 34.875 11.124C34.8751 9.24782 34.3472 7.40941 33.3517 5.81904C32.3563 4.22867 30.9334 2.95044 29.2457 2.13043C27.558 1.31043 25.6736 0.98176 23.808 1.18198C22.3957 1.33355 21.0372 1.78357 19.8204 2.49629C20.7669 3.4503 21.5525 4.55603 22.1428 5.7709C22.9532 7.43904 23.3744 9.26939 23.3744 11.1239C23.3744 12.9785 22.9532 14.8089 22.1428 16.477C21.5525 17.6919 20.7669 18.7976 19.8204 19.7516Z" fill="white"/>
<path d="M34.939 17.6585V18.0166H34.8601V17.6585H34.7156V17.5856H35.0834V17.6585H34.939Z" fill="white"/>
<path d="M35.653 17.5849V18.0166H35.5735V17.6902L35.4519 17.9717H35.3693L35.2477 17.691V18.0166H35.1681V17.5849H35.2809L35.4106 17.8819L35.5403 17.5849H35.653Z" fill="white"/>
<path d="M6.54896 25.9871V27.8409H5.90008V26.1972C5.90008 25.6967 5.68996 25.4186 5.25122 25.4186C5.14963 25.414 5.04825 25.4316 4.95419 25.4703C4.86014 25.5089 4.77569 25.5677 4.70678 25.6425C4.63787 25.7173 4.58617 25.8063 4.55532 25.9032C4.52446 26.0001 4.5152 26.1025 4.52818 26.2034V27.8409H3.87929V26.1972C3.87929 25.6967 3.66297 25.4186 3.23656 25.4186C3.1347 25.4129 3.03283 25.4298 2.93828 25.4682C2.84373 25.5065 2.75884 25.5653 2.68971 25.6403C2.62058 25.7153 2.56893 25.8047 2.53847 25.9021C2.508 25.9994 2.49947 26.1023 2.5135 26.2034V27.8409H1.86462V24.8873H2.50735V25.2518C2.60087 25.1097 2.72989 24.9944 2.88163 24.9175C3.03338 24.8405 3.2026 24.8046 3.37254 24.8131C3.56748 24.8048 3.76107 24.8492 3.93291 24.9416C4.10475 25.034 4.24847 25.1711 4.34896 25.3383C4.45921 25.1659 4.61369 25.0263 4.7963 24.9339C4.97891 24.8415 5.18296 24.7998 5.38717 24.8131C5.54321 24.8039 5.69942 24.828 5.84539 24.8839C5.99136 24.9398 6.12373 25.0262 6.23367 25.1373C6.34361 25.2484 6.4286 25.3817 6.48297 25.5282C6.53734 25.6748 6.55984 25.8312 6.54896 25.9871Z" fill="white"/>
<path d="M15.1019 24.8873H16.1525V25.4743H15.1019V26.809C15.1019 27.1055 15.207 27.3033 15.5283 27.3033C15.7289 27.2967 15.9245 27.2393 16.0969 27.1364L16.2822 27.6864C16.0413 27.8366 15.7628 27.9159 15.4789 27.915C14.7188 27.915 14.453 27.5072 14.453 26.8213V25.4743H13.8536V24.8873H14.453V23.9913H15.1019V24.8873Z" fill="white"/>
<path d="M21.1852 24.9223C21.3223 24.8462 21.4773 24.8085 21.634 24.8131C21.7899 24.8137 21.9446 24.8409 22.0913 24.8934L21.8936 25.499C21.7659 25.4481 21.6294 25.4229 21.4919 25.4248C21.0716 25.4248 20.8615 25.6967 20.8615 26.1848V27.8409H20.2188V24.8873H20.8554V25.2456C20.9342 25.1102 21.0482 24.9985 21.1852 24.9223Z" fill="white"/>
<path d="M12.1418 24.8131C12.5648 24.7985 12.983 24.9058 13.3468 25.122L13.0687 25.6411C12.7883 25.4798 12.4714 25.3926 12.1479 25.3877C11.7956 25.3877 11.5856 25.5175 11.5856 25.7338C11.5856 25.9316 11.808 25.9871 12.0862 26.0242L12.389 26.0674C13.0317 26.1601 13.4209 26.432 13.4209 26.9511C13.4209 27.5133 12.9266 27.915 12.0738 27.915C11.6173 27.9276 11.1689 27.7933 10.7945 27.5319L11.0973 27.0314C11.3809 27.2417 11.727 27.3505 12.0799 27.3404C12.5187 27.3404 12.7536 27.2106 12.7536 26.9819C12.7536 26.8151 12.5867 26.7224 12.2344 26.673L11.9316 26.6298C11.2704 26.5371 10.912 26.2405 10.912 25.7585C10.912 25.1715 11.394 24.8131 12.1418 24.8131Z" fill="white"/>
<path d="M30.1151 24.9223C30.2522 24.8462 30.4072 24.8085 30.5639 24.8131C30.7198 24.8137 30.8745 24.8409 31.0213 24.8934L30.8235 25.499C30.6958 25.4481 30.5593 25.4229 30.4218 25.4248C30.0016 25.4248 29.7914 25.6967 29.7914 26.1848V27.8409H29.1488V24.8873H29.7853V25.2456C29.8641 25.1102 29.9781 24.9985 30.1151 24.9223Z" fill="white"/>
<path d="M22.386 26.9733C22.3095 26.7796 22.2743 26.5721 22.2829 26.364C22.2744 26.1559 22.3095 25.9484 22.386 25.7547C22.4625 25.561 22.5787 25.3855 22.7272 25.2394C22.8756 25.0933 23.053 24.9799 23.2479 24.9065C23.4428 24.8331 23.6509 24.8013 23.8588 24.8131C24.2447 24.7937 24.6238 24.9194 24.9217 25.1653L24.6127 25.6844C24.3905 25.515 24.1196 25.4218 23.8402 25.4186C23.5994 25.4333 23.3732 25.5392 23.2078 25.7149C23.0425 25.8906 22.9504 26.1228 22.9504 26.364C22.9504 26.6053 23.0425 26.8375 23.2078 27.0132C23.3732 27.1889 23.5994 27.2948 23.8402 27.3094C24.1196 27.3063 24.3905 27.2131 24.6127 27.0437L24.9217 27.5628C24.6238 27.8088 24.2447 27.9344 23.8588 27.915C23.6509 27.9269 23.4427 27.895 23.2478 27.8216C23.0529 27.7482 22.8756 27.6348 22.7271 27.4887C22.5787 27.3426 22.4625 27.167 22.386 26.9733Z" fill="white"/>
<path fill-rule="evenodd" clip-rule="evenodd" d="M28.3021 24.8873V27.8409H27.6594V27.4824C27.5497 27.6238 27.4077 27.7369 27.2454 27.8121C27.083 27.8874 26.905 27.9227 26.7262 27.915C26.328 27.8955 25.9525 27.7236 25.6776 27.4349C25.4026 27.1461 25.2493 26.7627 25.2493 26.3641C25.2493 25.9654 25.4026 25.582 25.6776 25.2933C25.9525 25.0046 26.328 24.8326 26.7262 24.8131C26.905 24.8055 27.083 24.8407 27.2454 24.916C27.4077 24.9912 27.5497 25.1043 27.6594 25.2456V24.8873H28.3021ZM26.0853 25.882C25.9812 26.0221 25.9204 26.1897 25.9105 26.364C25.9023 26.4861 25.9194 26.6086 25.9609 26.7237C26.0024 26.8389 26.0672 26.9441 26.1514 27.033C26.2356 27.1218 26.3373 27.1922 26.4501 27.2398C26.5628 27.2874 26.6842 27.3111 26.8066 27.3094C26.9812 27.3088 27.1518 27.2571 27.2974 27.1607C27.4429 27.0643 27.5571 26.9275 27.6258 26.767C27.6945 26.6065 27.7147 26.4294 27.6839 26.2575C27.6532 26.0857 27.5728 25.9266 27.4527 25.7999C27.3326 25.6732 27.178 25.5844 27.0081 25.5444C26.8381 25.5045 26.6601 25.5152 26.4962 25.5752C26.3322 25.6352 26.1894 25.7418 26.0853 25.882Z" fill="white"/>
<path fill-rule="evenodd" clip-rule="evenodd" d="M17.1027 25.3027C17.3769 25.0097 17.754 24.8342 18.1548 24.8131C18.9829 24.8131 19.5514 25.4434 19.5576 26.364C19.5576 26.4505 19.5514 26.5309 19.5453 26.6112H17.3514C17.3759 26.8228 17.4819 27.0167 17.6468 27.1516C17.8117 27.2866 18.0227 27.352 18.2351 27.3342C18.5478 27.3295 18.8501 27.2208 19.0941 27.0252L19.4093 27.501C19.0701 27.7831 18.639 27.9305 18.198 27.915C17.7968 27.9051 17.415 27.7402 17.1327 27.4549C16.8505 27.1697 16.6897 26.7861 16.6841 26.3849C16.6785 25.9836 16.8285 25.5958 17.1027 25.3027ZM18.6644 25.5916C18.5242 25.4573 18.3365 25.384 18.1424 25.3877C17.9439 25.3811 17.7506 25.4523 17.6039 25.5863C17.4573 25.7202 17.3689 25.9062 17.3576 26.1045H18.8902C18.8858 25.9104 18.8046 25.726 18.6644 25.5916Z" fill="white"/>
<path fill-rule="evenodd" clip-rule="evenodd" d="M34.2657 23.7009V27.8409H33.6229V27.4824C33.5133 27.6238 33.3713 27.7369 33.2089 27.8121C33.0466 27.8874 32.8686 27.9227 32.6898 27.915C32.2916 27.8955 31.9161 27.7236 31.6411 27.4349C31.3661 27.1462 31.2128 26.7628 31.2128 26.3641C31.2128 25.9654 31.3661 25.582 31.6411 25.2933C31.9161 25.0045 32.2916 24.8326 32.6898 24.8131C32.8686 24.8055 33.0466 24.8407 33.2089 24.916C33.3713 24.9912 33.5132 25.1043 33.6229 25.2456V23.7009H34.2657ZM32.0489 25.882C31.9448 26.0222 31.8841 26.1897 31.8741 26.364C31.8659 26.4861 31.883 26.6086 31.9245 26.7237C31.966 26.8388 32.0308 26.9441 32.115 27.033C32.1992 27.1218 32.3009 27.1922 32.4136 27.2398C32.5264 27.2874 32.6478 27.3111 32.7701 27.3094C32.9447 27.3088 33.1153 27.2571 33.2609 27.1608C33.4064 27.0644 33.5206 26.9275 33.5893 26.767C33.658 26.6065 33.6782 26.4294 33.6475 26.2576C33.6167 26.0858 33.5364 25.9267 33.4163 25.8C33.2962 25.6733 33.1416 25.5845 32.9717 25.5445C32.8017 25.5046 32.6238 25.5153 32.4598 25.5752C32.2958 25.6352 32.153 25.7418 32.0489 25.882Z" fill="white"/>
<path fill-rule="evenodd" clip-rule="evenodd" d="M35.4353 27.5924C35.4119 27.5753 35.3832 27.5671 35.3543 27.5689H35.2284V27.8417H35.2867V27.7395H35.3133L35.3961 27.8417H35.4659L35.3766 27.7388C35.4005 27.7371 35.4232 27.7276 35.4411 27.7118C35.4485 27.7046 35.4544 27.6959 35.4583 27.6863C35.4622 27.6767 35.464 27.6664 35.4637 27.656C35.4642 27.644 35.4619 27.6319 35.457 27.6209C35.4521 27.6098 35.4447 27.6001 35.4353 27.5924ZM35.2867 27.6928V27.6201H35.3536C35.3665 27.6194 35.3792 27.6225 35.3904 27.629C35.3948 27.6319 35.3984 27.636 35.4008 27.6407C35.4032 27.6454 35.4043 27.6507 35.404 27.656C35.4043 27.6614 35.4033 27.6668 35.4009 27.6717C35.3998 27.674 35.3984 27.6761 35.3968 27.678C35.3949 27.6802 35.3928 27.6821 35.3904 27.6837C35.3793 27.6902 35.3665 27.6934 35.3536 27.6928H35.2867Z" fill="white"/>
<path fill-rule="evenodd" clip-rule="evenodd" d="M35.4533 27.4359C35.4165 27.4204 35.3769 27.4126 35.337 27.4128C35.2964 27.4125 35.2562 27.4204 35.2187 27.4359C35.1831 27.4504 35.1507 27.4718 35.1234 27.4988C35.0963 27.5256 35.0747 27.5574 35.0597 27.5924C35.0442 27.6283 35.0363 27.6671 35.0363 27.7062C35.0363 27.7454 35.0442 27.7841 35.0597 27.8201C35.0831 27.874 35.1219 27.9199 35.1712 27.9518C35.2206 27.9838 35.2782 28.0006 35.337 28C35.377 28.0003 35.4166 27.9923 35.4533 27.9766C35.4886 27.9616 35.5208 27.9401 35.5483 27.9133C35.5754 27.8866 35.5971 27.855 35.6123 27.8201C35.6278 27.7841 35.6357 27.7454 35.6357 27.7062C35.6357 27.6671 35.6278 27.6283 35.6123 27.5924C35.5972 27.5574 35.5755 27.5256 35.5483 27.4988C35.5209 27.472 35.4887 27.4506 35.4533 27.4359ZM35.4256 27.9172C35.3977 27.9293 35.3675 27.9355 35.337 27.9352C35.306 27.9354 35.2753 27.9293 35.2467 27.9172C35.2195 27.9058 35.1947 27.8892 35.1737 27.8683C35.131 27.8252 35.1071 27.767 35.1071 27.7064C35.1071 27.6457 35.131 27.5875 35.1737 27.5445C35.1947 27.5237 35.2195 27.5072 35.2467 27.4959C35.2754 27.4841 35.3061 27.4781 35.337 27.4783C35.3675 27.478 35.3976 27.4841 35.4256 27.4959C35.4525 27.5074 35.4769 27.5238 35.4975 27.5445C35.5402 27.5876 35.5641 27.6457 35.5641 27.7064C35.5641 27.767 35.5402 27.8252 35.4975 27.8683C35.4768 27.889 35.4524 27.9056 35.4256 27.9172Z" fill="white"/>
<path fill-rule="evenodd" clip-rule="evenodd" d="M10.1704 24.8873V27.8409H9.52765V27.4824C9.41795 27.6238 9.27599 27.7369 9.11364 27.8121C8.95129 27.8874 8.77328 27.9227 8.59449 27.915C8.19625 27.8955 7.82077 27.7236 7.54583 27.4349C7.27088 27.1461 7.11753 26.7627 7.11753 26.3641C7.11753 25.9654 7.27088 25.582 7.54583 25.2933C7.82077 25.0046 8.19625 24.8326 8.59449 24.8131C8.77327 24.8055 8.95129 24.8407 9.11364 24.916C9.27599 24.9912 9.41795 25.1043 9.52765 25.2456V24.8873H10.1704ZM7.95363 25.882C7.84956 26.0222 7.78878 26.1897 7.77879 26.364C7.77057 26.4861 7.78774 26.6086 7.8292 26.7237C7.87067 26.8388 7.93553 26.9441 8.01972 27.033C8.1039 27.1218 8.20557 27.1922 8.31832 27.2398C8.43108 27.2874 8.55247 27.3111 8.67484 27.3094C8.84943 27.3088 9.02002 27.2572 9.16559 27.1608C9.31115 27.0644 9.42532 26.9275 9.49402 26.767C9.56272 26.6065 9.58294 26.4295 9.55219 26.2576C9.52144 26.0858 9.44106 25.9267 9.32097 25.8C9.20088 25.6733 9.04632 25.5845 8.87637 25.5445C8.70641 25.5046 8.52847 25.5153 8.36451 25.5752C8.20054 25.6352 8.05771 25.7418 7.95363 25.882Z" fill="white"/>
</svg>
