<svg width="57" height="15" viewBox="0 0 57 15" fill="none" xmlns="http://www.w3.org/2000/svg">
<path d="M5.35172 0.00149618C5.3226 0.00197438 5.29561 0.00241749 5.27097 0.00255968L0 0.00260702V15H5.09346V6.15522H5.43501L8.27436 15H12.1065L14.9459 6.16177H15.2874V15H20.3809V0.00260702L15.3835 0.00260101C15.3448 0.00260101 15.3025 0.00204163 15.2572 0.0014417C14.5455 -0.00798428 13.0777 -0.0274226 12.4688 1.95539C12.0903 3.18772 11.3949 5.49082 10.3827 8.8647H9.99824C9.05434 5.6645 8.36648 3.36139 7.93466 1.95539C7.32463 -0.0308973 5.9246 -0.00791 5.35172 0.00149618Z" fill="white"/>
<path d="M27.695 8.84738V0.00260702H22.4952V15H27.4241C27.4241 15 28.9208 14.869 29.5912 13.4282L32.9773 6.15522H33.3836V15H38.5835V0.00260702H33.6545C33.6545 0.00260702 32.2256 0.127039 31.5551 1.57439L28.1013 8.84738H27.695Z" fill="white"/>
<path d="M51.0314 10.5325C53.5533 10.5325 55.8311 9.1124 56.5564 7.12947H40.6337V15H45.5784V10.5325H51.0314Z" fill="white"/>
<path d="M40.3743 0.0026033H51.2699C55.4622 0.0026033 57.4886 3.42483 56.9 6.19987H46.6995C43.6141 6.19987 40.6336 3.34153 40.3743 0.0026033Z" fill="white"/>
</svg>
