<svg width="49" height="16" viewBox="0 0 49 16" fill="none" xmlns="http://www.w3.org/2000/svg">
<path d="M24.2325 0.282613L20.9628 15.7571H17.0079L20.2779 0.282613H24.2325ZM40.8704 10.2747L42.9519 4.46368L44.1498 10.2747H40.8704ZM45.2844 15.7571H48.9412L45.7464 0.282613H42.3733C41.6131 0.282613 40.9722 0.728807 40.6886 1.41689L34.7546 15.7571H38.9079L39.7324 13.446H44.8054L45.2844 15.7571ZM34.9606 10.7052C34.9778 6.62122 29.3836 6.39499 29.421 4.57019C29.4331 4.01575 29.9557 3.42512 31.0978 3.27406C31.6641 3.20028 33.2267 3.14041 34.9981 3.96667L35.6909 0.683909C34.7395 0.335516 33.5152 0 31.9917 0C28.0822 0 25.332 2.1022 25.31 5.11488C25.2849 7.34272 27.2746 8.58489 28.7705 9.32692C30.3129 10.0853 30.8296 10.5715 30.8221 11.2492C30.8114 12.2874 29.5922 12.7472 28.457 12.7646C26.4676 12.7959 25.3145 12.2202 24.3955 11.7866L23.6776 15.179C24.6031 15.6078 26.3085 15.9809 28.0743 16C32.2307 16 34.9482 13.9225 34.9606 10.7052ZM18.5815 0.282613L12.1738 15.7571H7.99407L4.84059 3.40737C4.64942 2.64793 4.48267 2.3688 3.90128 2.0479C2.95029 1.52514 1.38042 1.03613 0 0.73194L0.093519 0.282613H6.82269C7.67982 0.282613 8.451 0.86002 8.64732 1.85961L10.3131 10.8148L14.4269 0.282613H18.5815Z" fill="white"/>
</svg>
