<svg width="19" height="13" viewBox="0 0 19 13" fill="none" xmlns="http://www.w3.org/2000/svg">
<path fill-rule="evenodd" clip-rule="evenodd" d="M16.5482 0.397647C17.3435 0.611765 17.9706 1.23882 18.1847 2.03412C18.5824 3.48706 18.5671 6.51529 18.5671 6.51529C18.5671 6.51529 18.5671 9.52824 18.1847 10.9812C17.9706 11.7765 17.3435 12.4035 16.5482 12.6176C15.0953 13 9.28353 13 9.28353 13C9.28353 13 3.48706 13 2.01882 12.6024C1.22353 12.3882 0.596471 11.7612 0.382353 10.9659C0 9.52824 0 6.5 0 6.5C0 6.5 0 3.48706 0.382353 2.03412C0.596471 1.23882 1.23882 0.596471 2.01882 0.382353C3.47176 0 9.28353 0 9.28353 0C9.28353 0 15.0953 0 16.5482 0.397647ZM12.2659 6.5L7.43296 9.28353V3.71647L12.2659 6.5Z" fill="white"/>
</svg>
