<svg width="25" height="26" viewBox="0 0 25 26" fill="none" xmlns="http://www.w3.org/2000/svg">
<path d="M7.49463 4.7365V6.40197H23.3166V9.69883L21.469 15.5621H6.97063L4.88879 0.570786H0V2.23626H3.43858L5.52042 17.2276H22.6904L24.9821 9.955V4.7365H7.49463Z" fill="white"/>
<path d="M8.37861 18.9089C7.4955 18.9099 6.64885 19.2612 6.02439 19.8856C5.39993 20.5101 5.04867 21.3567 5.04767 22.2398C5.04767 23.1233 5.39861 23.9705 6.02328 24.5952C6.64795 25.2198 7.49519 25.5708 8.37861 25.5708C9.26204 25.5708 10.1093 25.2198 10.734 24.5952C11.3586 23.9705 11.7096 23.1233 11.7096 22.2398C11.7086 21.3567 11.3573 20.5101 10.7329 19.8856C10.1084 19.2611 9.26173 18.9099 8.37861 18.9089ZM8.37861 23.9053C8.04922 23.9053 7.72721 23.8076 7.45333 23.6246C7.17944 23.4416 6.96597 23.1815 6.83992 22.8772C6.71386 22.5729 6.68088 22.238 6.74514 21.9149C6.80941 21.5918 6.96803 21.2951 7.20095 21.0622C7.43387 20.8292 7.73063 20.6706 8.0537 20.6064C8.37677 20.5421 8.71164 20.5751 9.01596 20.7011C9.32029 20.8272 9.5804 21.0407 9.76341 21.3146C9.94641 21.5884 10.0441 21.9104 10.0441 22.2398C10.0436 22.6814 9.86793 23.1047 9.55571 23.4169C9.24348 23.7292 8.82017 23.9048 8.37861 23.9053Z" fill="white"/>
<path d="M21.3309 18.5708C20.4478 18.5718 19.6012 18.9231 18.9767 19.5475C18.3523 20.172 18.001 21.0186 18 21.9017C18 22.7852 18.3509 23.6324 18.9756 24.2571C19.6003 24.8817 20.4475 25.2327 21.3309 25.2327C22.2144 25.2327 23.0616 24.8817 23.6863 24.2571C24.311 23.6324 24.6619 22.7852 24.6619 21.9017C24.6609 21.0186 24.3096 20.172 23.6852 19.5475C23.0607 18.923 22.2141 18.5718 21.3309 18.5708ZM21.3309 23.5672C21.0015 23.5672 20.6795 23.4695 20.4057 23.2865C20.1318 23.1035 19.9183 22.8434 19.7923 22.5391C19.6662 22.2348 19.6332 21.8999 19.6975 21.5768C19.7617 21.2537 19.9204 20.957 20.1533 20.7241C20.3862 20.4911 20.683 20.3325 21.006 20.2683C21.3291 20.204 21.664 20.237 21.9683 20.363C22.2726 20.4891 22.5327 20.7026 22.7157 20.9764C22.8987 21.2503 22.9964 21.5723 22.9964 21.9017C22.9959 22.3433 22.8203 22.7666 22.508 23.0788C22.1958 23.391 21.7725 23.5667 21.3309 23.5672Z" fill="white"/>
</svg>
