<svg width="195" height="67" viewBox="0 0 195 67" fill="none" xmlns="http://www.w3.org/2000/svg">
<path d="M80.5755 56.9685C79.6 56.3832 79.0147 55.993 79.0147 55.2126C79.0147 54.4322 79.6976 54.2371 80.2829 54.2371C80.6731 54.2371 81.0632 54.3347 81.4534 54.5298L81.9412 54.7249L82.5265 52.969L82.1363 52.7739C81.551 52.5788 80.8681 52.4812 80.1853 52.4812C78.4294 52.4812 77.1613 53.6518 77.1613 55.3101C77.1613 57.2611 78.4294 58.0415 79.5025 58.6268C80.3804 59.2121 80.9657 59.5047 80.9657 60.2851C80.9657 61.1631 80.2829 61.3582 79.6976 61.3582C79.0147 61.3582 78.4294 61.1631 77.9417 60.8704L77.3564 60.5778L76.8687 62.4312L77.1613 62.6263C77.8441 63.0165 78.7221 63.2116 79.6976 63.2116C82.0387 63.2116 82.8191 61.6508 82.8191 60.1876C82.9167 58.3342 81.6485 57.5538 80.5755 56.9685Z" fill="black"/>
<path d="M92.3789 54.4322H95.1103V63.0165H97.0613V54.4322H99.8902V52.6763H92.3789V54.4322Z" fill="black"/>
<path d="M115.498 58.7244C115.498 61.1631 114.425 61.4557 113.645 61.4557C112.376 61.4557 111.694 60.5778 111.694 58.8219V52.6763H109.743V58.7244C109.743 61.5533 111.206 63.2116 113.645 63.2116C116.083 63.2116 117.449 61.6508 117.449 58.8219V52.6763H115.498V58.7244Z" fill="black"/>
<path d="M132.276 52.6763H128.472V63.0165H131.983C134.91 63.0165 136.763 60.968 136.763 57.7489C136.861 54.8224 135.007 52.6763 132.276 52.6763ZM130.423 54.4322H132.081C133.739 54.4322 134.812 55.7979 134.812 57.7489C134.812 59.895 133.739 61.1631 131.886 61.1631H130.325V54.4322H130.423Z" fill="black"/>
<path d="M149.347 52.6763H147.396V63.0165H149.347V52.6763Z" fill="black"/>
<path d="M164.468 52.4812C161.639 52.4812 159.785 54.6273 159.785 57.8464C159.785 61.0655 161.639 63.2116 164.468 63.2116C167.296 63.2116 169.15 61.0655 169.15 57.8464C169.15 54.6273 167.296 52.4812 164.468 52.4812ZM167.101 57.8464C167.101 58.4317 167.004 61.4557 164.468 61.4557C161.931 61.4557 161.834 58.5293 161.834 57.8464C161.834 56.0905 162.614 54.2371 164.468 54.2371C167.004 54.2371 167.101 57.2611 167.101 57.8464Z" fill="black"/>
<path fill-rule="evenodd" clip-rule="evenodd" d="M0 26.1431V30.7279C0.195098 31.2156 0.195098 31.8984 0.390195 32.5813C0.78039 34.3372 1.26813 35.8979 2.04852 37.3612C5.36518 43.8969 11.1206 45.8479 18.9245 45.8479C30.2401 45.8479 41.4582 45.8479 52.7739 45.8479C59.017 45.8479 62.6263 46.043 67.016 43.2141C70.1376 41.1656 72.8689 37.5563 73.3567 32.5813C73.942 26.6308 72.2836 23.0215 68.5768 20.7779C65.6503 19.022 61.9435 18.4367 58.5293 20.095C57.1636 20.7779 56.2856 20.973 56.2856 21.9485C59.2121 22.4362 63.4067 21.9485 65.7479 25.1676C67.6013 27.7039 67.1136 32.4837 65.5528 35.1176C62.7239 40.1901 53.6518 41.1656 48.5793 35.6053C43.7994 30.2401 46.3357 21.1681 51.7009 18.4367C54.3347 17.071 59.8949 17.6563 63.4067 17.6563C67.5038 17.6563 71.7959 17.5588 75.893 17.6563V45.9455C84.4772 46.043 93.0615 45.9455 101.646 45.9455C105.84 45.9455 110.23 46.043 114.425 45.9455C118.327 45.8479 121.643 44.3847 123.984 42.7264C129.837 38.6293 132.666 30.7279 129.252 24.8749C125.838 19.022 116.961 17.3637 112.961 21.2656C112.669 21.5583 112.376 21.7534 112.571 22.046C112.864 22.1436 113.157 21.8509 113.644 21.7534C114.132 21.6558 114.717 21.6558 115.303 21.6558C117.839 21.6558 120.668 22.4362 122.229 24.2896C125.448 28.094 124.765 37.6538 114.522 38.8244C110.133 39.3122 107.206 38.044 105.06 35.8004C100.085 30.5328 102.036 21.4607 107.791 18.4367C110.62 16.9735 116.083 17.5588 119.79 17.5588C122.034 17.5588 131.008 17.2661 132.569 17.6563C132.569 21.4607 132.569 25.3627 132.569 29.1671C132.569 33.069 133.349 35.7029 135.008 38.2391C140.86 47.4087 158.517 49.4572 165.443 37.9465C169.15 31.8009 167.589 25.6553 167.979 17.5588C171.978 17.3637 176.173 17.5588 180.173 17.5588C182.416 17.5588 183.977 17.2661 185.538 18.3392C186.513 19.022 187.684 20.3877 188.074 21.9485C188.952 25.5578 186.416 28.7769 183.197 28.8744C179.197 29.0695 175.003 28.7769 171.003 28.8744V36.093H176.563C176.856 42.6288 176.563 52.1886 176.563 59.4072C176.563 61.2606 176.661 61.8459 177.539 63.0165C179.587 65.8454 182.416 66.0405 183.392 66.5283H186.221L186.708 66.3332C186.903 66.2356 187.001 66.2356 187.196 66.2356C189.537 65.6503 191.683 64.2846 192.561 61.9435C194.122 57.8464 190.708 54.92 189.245 55.3102C189.732 56.4807 190.903 56.6758 190.805 58.8219C190.708 62.2361 186.026 62.4312 184.562 60.7729C183.489 59.6023 183.782 58.3342 183.782 56.3832C183.782 53.8469 183.587 36.971 183.879 36.093C187.294 35.1176 189.05 34.6298 191.293 32.3862C194.317 29.3622 194.122 27.8014 194.902 25.2651L195 24.8749V21.2656L194.902 20.973V20.8754L193.537 17.071C192.854 15.8029 191.976 14.7299 191.098 13.8519C189.342 12.1936 186.708 10.5353 183.294 10.3402C179.685 10.1451 175.685 10.3402 171.978 10.3402C168.272 10.3402 164.565 10.2426 160.858 10.3402C160.76 15.2176 161.053 25.948 160.76 29.7524C160.468 32.8739 159.687 34.9225 157.736 36.4832C152.176 40.8729 139.495 38.1416 139.495 29.5573C139.495 26.1431 139.69 12.3887 139.495 10.3402C138.227 10.1451 123.302 10.2426 120.57 10.2426C113.742 10.2426 108.864 9.46223 103.987 12.4862C94.6223 18.3392 92.8664 29.5573 98.5243 38.5318H83.4042C83.3067 30.4352 83.4042 22.4362 83.3067 14.3397C83.3067 9.75488 83.6969 7.21861 81.4532 4.1946C79.7949 2.04852 77.3562 0.78039 74.6248 0.292646C74.3322 0.195098 74.2346 0.195098 73.942 0.195098L73.5518 0H69.3572H69.2596H69.1621C68.4792 0.292646 68.6743 0 68.5768 0.390195C68.1866 1.56078 70.3327 0.487744 73.2591 3.6093C74.5273 4.97499 75.893 7.70635 75.893 10.1451C70.3327 10.3402 64.5773 10.1451 59.017 10.1451C56.0905 10.1451 53.6518 9.94997 51.1156 10.7304C45.3602 12.5838 40.5803 18.0465 39.5073 24.4847C39.1171 27.021 39.1171 29.9475 39.6048 32.4837C40.2876 35.8979 41.3607 36.6783 42.0435 38.4342C37.3612 38.5318 32.5813 38.4342 27.8014 38.4342C24.4847 38.4342 16.6808 38.8244 14.047 38.044C10.5353 37.0685 8.09655 34.2396 7.31616 30.6303C6.43822 26.2406 8.09655 21.9485 10.3402 19.8999C13.5593 16.9735 16.7784 17.5588 22.2411 17.5588C25.7529 17.5588 33.1666 17.949 35.9955 17.1686C39.3122 16.2906 42.3362 13.3642 42.2386 9.26713C42.2386 3.70685 37.5563 0.585293 36.6783 0.877939C36.2881 1.95098 39.4097 3.6093 37.8489 6.92596C37.1661 8.48674 35.1176 10.0475 33.069 10.2426C31.1181 10.4377 19.7049 10.2426 16.7784 10.2426C9.26713 10.2426 4.38969 13.7544 1.75588 19.7049C0.585293 22.2411 0.390195 25.2651 0 26.1431Z" fill="black"/>
</svg>
