<svg width="220" height="75" viewBox="0 0 220 75" fill="none" xmlns="http://www.w3.org/2000/svg">
<path d="M90.8356 64.2227C89.7359 63.5629 89.0761 63.123 89.0761 62.2432C89.0761 61.3635 89.8459 61.1435 90.5057 61.1435C90.9456 61.1435 91.3855 61.2535 91.8254 61.4734L92.3752 61.6934L93.035 59.7139L92.5951 59.494C91.9353 59.274 91.1655 59.1641 90.3957 59.1641C88.4163 59.1641 86.9866 60.4837 86.9866 62.3532C86.9866 64.5526 88.4163 65.4324 89.6259 66.0922C90.6157 66.752 91.2755 67.082 91.2755 67.9617C91.2755 68.9515 90.5057 69.1714 89.8459 69.1714C89.0761 69.1714 88.4163 68.9515 87.8664 68.6215L87.2066 68.2916L86.6567 70.3811L86.9866 70.601C87.7564 71.0409 88.7462 71.2608 89.8459 71.2608C92.4852 71.2608 93.3649 69.5013 93.3649 67.8517C93.4749 65.7623 92.0453 64.8825 90.8356 64.2227Z" fill="white"/>
<path d="M104.142 61.3633H107.221V71.0407H109.421V61.3633H112.61V59.3838H104.142V61.3633Z" fill="white"/>
<path d="M130.205 66.202C130.205 68.9512 128.995 69.2811 128.116 69.2811C126.686 69.2811 125.916 68.2914 125.916 66.3119V59.3838H123.717V66.202C123.717 69.3911 125.366 71.2606 128.116 71.2606C130.865 71.2606 132.404 69.5011 132.404 66.3119V59.3838H130.205V66.202Z" fill="white"/>
<path d="M149.12 59.3838H144.831V71.0407H148.79C152.089 71.0407 154.179 68.7313 154.179 65.1023C154.289 61.8031 152.199 59.3838 149.12 59.3838ZM147.03 61.3633H148.9C150.769 61.3633 151.979 62.9029 151.979 65.1023C151.979 67.5216 150.769 68.9512 148.68 68.9512H146.921V61.3633H147.03Z" fill="white"/>
<path d="M168.365 59.3838H166.166V71.0407H168.365V59.3838Z" fill="white"/>
<path d="M185.41 59.1641C182.221 59.1641 180.132 61.5834 180.132 65.2124C180.132 68.8415 182.221 71.2608 185.41 71.2608C188.6 71.2608 190.689 68.8415 190.689 65.2124C190.689 61.5834 188.6 59.1641 185.41 59.1641ZM188.38 65.2124C188.38 65.8723 188.27 69.2814 185.41 69.2814C182.551 69.2814 182.441 65.9822 182.441 65.2124C182.441 63.233 183.321 61.1435 185.41 61.1435C188.27 61.1435 188.38 64.5526 188.38 65.2124Z" fill="white"/>
<path fill-rule="evenodd" clip-rule="evenodd" d="M0 29.4721V34.6408C0.219941 35.1906 0.219941 35.9604 0.439883 36.7302C0.879766 38.7097 1.42962 40.4692 2.30938 42.1188C6.04839 49.4868 12.5367 51.6862 21.3343 51.6862C34.0909 51.6862 46.7375 51.6862 59.4941 51.6862C66.5323 51.6862 70.6012 51.9062 75.5499 48.717C79.0689 46.4076 82.1481 42.3387 82.698 36.7302C83.3578 30.022 81.4883 25.9531 77.3094 23.4238C74.0103 21.4443 69.8314 20.7845 65.9824 22.654C64.4428 23.4238 63.4531 23.6437 63.4531 24.7434C66.7522 25.2933 71.4809 24.7434 74.1202 28.3724C76.2097 31.2317 75.6598 36.6202 73.9003 39.5894C70.7111 45.3079 60.4839 46.4076 54.7654 40.1393C49.3768 34.0909 52.2361 23.8636 58.2845 20.7845C61.2537 19.2449 67.522 19.9047 71.4809 19.9047C76.0997 19.9047 80.9384 19.7947 85.5572 19.9047V51.7962C95.2346 51.9062 104.912 51.7962 114.589 51.7962C119.318 51.7962 124.267 51.9062 128.996 51.7962C133.394 51.6862 137.133 50.0367 139.773 48.1672C146.371 43.5484 149.56 34.6408 145.711 28.0425C141.862 21.4443 131.855 19.5748 127.346 23.9736C127.016 24.3035 126.686 24.5235 126.906 24.8534C127.236 24.9633 127.566 24.6334 128.116 24.5235C128.666 24.4135 129.326 24.4135 129.985 24.4135C132.845 24.4135 136.034 25.2933 137.793 27.3827C141.422 31.6716 140.653 42.4487 129.106 43.7683C124.157 44.3182 120.858 42.8886 118.438 40.3592C112.83 34.4208 115.029 24.1935 121.518 20.7845C124.707 19.1349 130.865 19.7947 135.044 19.7947C137.573 19.7947 147.691 19.4648 149.45 19.9047C149.45 24.1935 149.45 28.5924 149.45 32.8812C149.45 37.2801 150.33 40.2493 152.199 43.1085C158.798 53.4457 178.702 55.7551 186.51 42.7786C190.689 35.8504 188.93 28.9223 189.37 19.7947C193.878 19.5748 198.607 19.7947 203.116 19.7947C205.645 19.7947 207.405 19.4648 209.164 20.6745C210.264 21.4443 211.584 22.9839 212.023 24.7434C213.013 28.8123 210.154 32.4414 206.525 32.5513C202.016 32.7713 197.287 32.4414 192.779 32.5513V40.6892H199.047C199.377 48.0572 199.047 58.8343 199.047 66.9721C199.047 69.0616 199.157 69.7214 200.147 71.0411C202.456 74.2302 205.645 74.4501 206.745 75H209.934L210.484 74.7801C210.704 74.6701 210.814 74.6701 211.034 74.6701C213.673 74.0103 216.092 72.4707 217.082 69.8314C218.842 65.2126 214.993 61.9135 213.343 62.3534C213.893 63.673 215.213 63.893 215.103 66.3123C214.993 70.1613 209.714 70.3812 208.065 68.5117C206.855 67.1921 207.185 65.7625 207.185 63.5631C207.185 60.7038 206.965 41.6789 207.295 40.6892C211.144 39.5894 213.123 39.0396 215.653 36.5103C219.062 33.1012 218.842 31.3416 219.721 28.4824L219.831 28.0425V23.9736L219.721 23.6437V23.5337L218.182 19.2449C217.412 17.8152 216.422 16.6056 215.433 15.6158C213.453 13.7463 210.484 11.8768 206.635 11.6569C202.566 11.437 198.057 11.6569 193.878 11.6569C189.699 11.6569 185.521 11.5469 181.342 11.6569C181.232 17.1554 181.562 29.2522 181.232 33.5411C180.902 37.0601 180.022 39.3695 177.823 41.129C171.554 46.0777 157.258 42.9985 157.258 33.3211C157.258 29.4721 157.478 13.9663 157.258 11.6569C155.828 11.437 139.003 11.5469 135.924 11.5469C128.226 11.5469 122.727 10.6672 117.229 14.0762C106.672 20.6745 104.692 33.3211 111.07 43.4384H94.0249C93.915 34.3109 94.0249 25.2933 93.915 16.1657C93.915 10.9971 94.3549 8.13783 91.8255 4.72874C89.956 2.30938 87.2068 0.879765 84.1276 0.329912C83.7977 0.219941 83.6877 0.219941 83.3578 0.219941L82.9179 0H78.1892H78.0792H77.9692C77.1994 0.329912 77.4194 0 77.3094 0.439883C76.8695 1.75953 79.2889 0.549853 82.588 4.06892C84.0176 5.6085 85.5572 8.68768 85.5572 11.4369C79.2889 11.6569 72.8006 11.4369 66.5323 11.4369C63.2331 11.4369 60.4839 11.217 57.6246 12.0968C51.1364 14.1862 45.7478 20.3446 44.5381 27.6026C44.0982 30.4619 44.0982 33.761 44.6481 36.6202C45.4179 40.4692 46.6276 41.349 47.3974 43.3284C42.1188 43.4384 36.7302 43.3284 31.3416 43.3284C27.6026 43.3284 18.805 43.7683 15.8358 42.8886C11.8768 41.7889 9.12757 38.5997 8.2478 34.5308C7.25807 29.5821 9.12757 24.7434 11.6569 22.434C15.2859 19.1349 18.915 19.7947 25.0733 19.7947C29.0323 19.7947 37.39 20.2346 40.5792 19.3548C44.3182 18.3651 47.7273 15.066 47.6173 10.4472C47.6173 4.17889 42.3387 0.659824 41.349 0.989736C40.9091 2.19941 44.4282 4.06891 42.6686 7.80792C41.8988 9.56745 39.5894 11.327 37.2801 11.5469C35.0807 11.7669 22.2141 11.5469 18.915 11.5469C10.4472 11.5469 4.94868 15.5059 1.97947 22.2141C0.659824 25.0733 0.439883 28.4824 0 29.4721Z" fill="white"/>
</svg>
