<svg width="29" height="26" viewBox="0 0 29 26" fill="none" xmlns="http://www.w3.org/2000/svg">
<path d="M26.1044 2.75344C25.3949 2.06112 24.5525 1.51201 23.6253 1.1375C22.6982 0.762992 21.7045 0.570418 20.7011 0.570786C19.6976 0.571154 18.7041 0.764456 17.7773 1.13965C16.8504 1.51483 16.0085 2.06456 15.2994 2.7574L14.3739 3.67144L13.4561 2.75937L13.4502 2.75355C12.741 2.06156 11.899 1.51264 10.9724 1.13813C10.0458 0.763629 9.05267 0.570874 8.04971 0.570874C7.04674 0.570874 6.0536 0.763629 5.12699 1.13813C4.20037 1.51264 3.35843 2.06156 2.64923 2.75355L2.23693 3.15585C0.804648 4.55338 0 6.44884 0 8.42524C0 10.4016 0.804648 12.2971 2.23693 13.6946L13.1186 24.3121L14.3475 25.5684L14.3768 25.5398L14.4086 25.5708L15.5599 24.3855L26.5167 13.6945C27.9468 12.2958 28.75 10.4008 28.75 8.42507C28.75 6.44936 27.9468 4.55432 26.5167 3.15567L26.1044 2.75344ZM25.1663 12.3771L14.3768 22.9051L3.58696 12.3771C2.51275 11.329 1.90927 9.9074 1.90927 8.4251C1.90927 6.9428 2.51275 5.52121 3.58696 4.47306L3.99932 4.07076C5.07301 3.02314 6.52908 2.43434 8.0475 2.43378C9.56592 2.43323 11.0224 3.02095 12.0969 4.06779L14.3698 6.32594L16.6535 4.07076C17.1854 3.55177 17.8169 3.14008 18.5119 2.8592C19.2068 2.57832 19.9517 2.43375 20.7039 2.43375C21.4561 2.43375 22.201 2.57832 22.8959 2.8592C23.5909 3.14008 24.2223 3.55177 24.7542 4.07076L25.1665 4.473C26.2391 5.52201 26.8415 6.94332 26.8414 8.42512C26.8414 9.90691 26.239 11.3282 25.1663 12.3771Z" fill="white"/>
</svg>
