<svg width="29" height="26" viewBox="0 0 29 26" fill="none" xmlns="http://www.w3.org/2000/svg">
<path d="M26.1044 2.75345C25.3949 2.06113 24.5525 1.51203 23.6253 1.13752C22.6982 0.763008 21.7045 0.570434 20.7011 0.570801C19.6976 0.571169 18.7041 0.764471 17.7773 1.13966C16.8504 1.51485 16.0085 2.06457 15.2994 2.75741L14.3739 3.67145L13.4561 2.75939L13.4502 2.75357C12.741 2.06157 11.899 1.51265 10.9724 1.13815C10.0458 0.763645 9.05267 0.570889 8.04971 0.570889C7.04674 0.570889 6.0536 0.763645 5.12699 1.13815C4.20037 1.51265 3.35843 2.06157 2.64923 2.75357L2.23693 3.15586C0.804648 4.5534 0 6.44885 0 8.42526C0 10.4017 0.804648 12.2971 2.23693 13.6947L13.1186 24.3122L14.3475 25.5684L14.3768 25.5398L14.4086 25.5708L15.5599 24.3855L26.5167 13.6945C27.9468 12.2958 28.75 10.4008 28.75 8.42508C28.75 6.44937 27.9468 4.55433 26.5167 3.15569L26.1044 2.75345ZM25.1663 12.3772L14.3768 22.9051L3.58696 12.3772C2.51275 11.329 1.90927 9.90741 1.90927 8.42511C1.90927 6.94281 2.51275 5.52122 3.58696 4.47307L3.99932 4.07078C5.07301 3.02315 6.52908 2.43436 8.0475 2.4338C9.56592 2.43324 11.0224 3.02097 12.0969 4.06781L14.3698 6.32596L16.6535 4.07078C17.1854 3.55178 17.8169 3.14009 18.5119 2.85921C19.2068 2.57834 19.9517 2.43377 20.7039 2.43377C21.4561 2.43377 22.201 2.57834 22.8959 2.85921C23.5909 3.14009 24.2223 3.55178 24.7542 4.07078L25.1665 4.47302C26.2391 5.52203 26.8415 6.94334 26.8414 8.42513C26.8414 9.90693 26.239 11.3282 25.1663 12.3772Z" fill="black"/>
</svg>
