<svg width="19" height="26" viewBox="0 0 19 26" fill="none" xmlns="http://www.w3.org/2000/svg">
<path d="M16.8954 17.6362L13.185 15.1709L14.5838 12.5493C14.9099 11.9371 15.081 11.2512 15.0815 10.5542V6.40412C15.0815 4.85702 14.4803 3.37329 13.4101 2.27933C12.3399 1.18537 10.8885 0.570786 9.375 0.570786C7.86154 0.570786 6.41006 1.18537 5.33988 2.27933C4.2697 3.37329 3.66848 4.85702 3.66848 6.40412V10.5542C3.66899 11.2513 3.84008 11.9372 4.16617 12.5494L5.56503 15.1709L1.85463 17.6362C1.28438 18.0136 0.815824 18.5311 0.491823 19.1414C0.167822 19.7517 -0.00127449 20.4353 7.23242e-06 21.1297V25.5708H18.75V21.1297C18.7513 20.4354 18.5822 19.7517 18.2582 19.1414C17.9342 18.5311 17.4656 18.0136 16.8954 17.6362ZM17.1196 23.9041H1.63044V21.1297C1.62968 20.7131 1.73114 20.3029 1.92555 19.9367C2.11996 19.5705 2.40111 19.26 2.74326 19.0336L7.71914 15.7274L5.59754 11.7513C5.40189 11.384 5.29923 10.9724 5.29892 10.5542V6.40412C5.29892 5.29905 5.72836 4.23924 6.49277 3.45784C7.25719 2.67644 8.29395 2.23745 9.375 2.23745C10.456 2.23745 11.4928 2.67644 12.2572 3.45784C13.0216 4.23924 13.4511 5.29905 13.4511 6.40412V10.5542C13.4508 10.9724 13.3481 11.384 13.1525 11.7513L11.0309 15.7274L16.0069 19.0336C16.349 19.26 16.6301 19.5705 16.8245 19.9367C17.0189 20.3029 17.1203 20.7131 17.1196 21.1297V23.9041Z" fill="white"/>
</svg>
