<svg width="16" height="17" viewBox="0 0 16 17" fill="none" xmlns="http://www.w3.org/2000/svg">
<path d="M15.4533 13.3796L12.7505 10.6729L10.6716 9.81281C11.3638 8.82702 11.7346 7.65097 11.7333 6.44584C11.7333 3.20632 9.10155 0.570786 5.86665 0.570786C2.63176 0.570786 0 3.20632 0 6.44584C0 9.68537 2.63176 12.3209 5.86665 12.3209C7.08053 12.3223 8.26461 11.9445 9.25395 11.2401L10.1106 13.3164L12.8133 16.0232C12.9866 16.1968 13.1924 16.3345 13.4189 16.4285C13.6454 16.5224 13.8881 16.5708 14.1332 16.5708C14.3784 16.5708 14.6211 16.5224 14.8476 16.4285C15.0741 16.3346 15.2799 16.1969 15.4532 16.0233C15.6266 15.8497 15.7641 15.6436 15.8579 15.4168C15.9517 15.19 16 14.947 16 14.7015C16 14.456 15.9517 14.2129 15.8579 13.9861C15.7641 13.7593 15.6266 13.5532 15.4533 13.3796ZM1.06666 6.44584C1.06666 3.79539 3.21999 1.63898 5.86665 1.63898C8.51331 1.63898 10.6666 3.79539 10.6666 6.44584C10.6666 9.09629 8.51331 11.2527 5.86665 11.2527C3.21999 11.2527 1.06666 9.09629 1.06666 6.44584ZM14.699 15.2679C14.5488 15.4179 14.3454 15.5022 14.1333 15.5022C13.9212 15.5022 13.7178 15.4179 13.5676 15.2679L11.0152 12.7119L10.2187 10.7813L12.1466 11.5789L14.6991 14.1349C14.8489 14.2853 14.933 14.489 14.933 14.7014C14.9329 14.9138 14.8488 15.1175 14.699 15.2679Z" fill="white"/>
</svg>
