<svg width="16" height="12" viewBox="0 0 16 12" fill="none" xmlns="http://www.w3.org/2000/svg">
<path d="M6.7 1.15C6.9 1.35 6.996 1.59167 6.988 1.875C6.97933 2.15833 6.875 2.4 6.675 2.6L3.85 5.425L15 5.425C15.2833 5.425 15.521 5.521 15.713 5.713C15.9043 5.90433 16 6.14167 16 6.425C16 6.70833 15.9043 6.946 15.713 7.138C15.521 7.32933 15.2833 7.425 15 7.425L3.85 7.425L6.7 10.275C6.9 10.475 7 10.7127 7 10.988C7 11.2627 6.9 11.5 6.7 11.7C6.5 11.9 6.26233 12 5.987 12C5.71233 12 5.475 11.9 5.275 11.7L0.700001 7.125C0.600001 7.025 0.529 6.91667 0.487 6.8C0.445667 6.68333 0.425 6.55833 0.425 6.425C0.425 6.29167 0.445667 6.16667 0.487 6.05C0.529 5.93333 0.600001 5.825 0.700001 5.725L5.3 1.125C5.48333 0.941667 5.71233 0.849999 5.987 0.849999C6.26233 0.849999 6.5 0.95 6.7 1.15Z" fill="#929292"/>
</svg>
