<svg width="11" height="11" viewBox="0 0 11 11" fill="none" xmlns="http://www.w3.org/2000/svg">
<path d="M4.99989 1.75854L5.89134 4.50215H8.77614L6.44229 6.1978L7.33374 8.94141L4.99989 7.24577L2.66603 8.94141L3.55749 6.1978L1.22363 4.50215H4.10843L4.99989 1.75854Z" fill="#FFC700"/>
<path fill-rule="evenodd" clip-rule="evenodd" d="M5 1.36157C5.17202 1.36157 5.32447 1.47233 5.37762 1.63593L6.17993 4.10518H8.77625C8.94827 4.10518 9.10072 4.21594 9.15388 4.37954C9.20704 4.54314 9.1488 4.72236 9.00964 4.82347L6.90917 6.34954L7.71148 8.81879C7.76463 8.98239 7.7064 9.16161 7.56724 9.26272C7.42807 9.36383 7.23963 9.36383 7.10047 9.26272L5 7.73664L2.89953 9.26272C2.76037 9.36383 2.57193 9.36383 2.43276 9.26272C2.2936 9.16161 2.23537 8.98239 2.28852 8.81879L3.09083 6.34954L0.990361 4.82347C0.851197 4.72236 0.792965 4.54314 0.846121 4.37954C0.899277 4.21594 1.05173 4.10518 1.22375 4.10518H3.82007L4.62237 1.63593C4.67553 1.47233 4.82798 1.36157 5 1.36157Z" fill="#FFC700"/>
</svg>
