<svg width="10" height="11" viewBox="0 0 10 11" fill="none" xmlns="http://www.w3.org/2000/svg">
<path d="M4.49989 1.75854L5.39134 4.50215H8.27614L5.94229 6.1978L6.83374 8.94141L4.49989 7.24577L2.16603 8.94141L3.05749 6.1978L0.723633 4.50215H3.60843L4.49989 1.75854Z" fill="black"/>
<path d="M5.2044 4.25969L5.31666 4.60518H5.67993H7.95944L6.11528 5.94503L5.82138 6.15856L5.93364 6.50405L6.63805 8.67199L4.79389 7.33213L4.5 7.11861L4.20611 7.33213L2.36195 8.67199L3.06636 6.50405L3.17862 6.15856L2.88472 5.94503L1.04056 4.60518H3.32007H3.68334L3.7956 4.25969L4.5 2.09176L5.2044 4.25969ZM6.89437 8.85822L6.89436 8.85821L6.89437 8.85822ZM4.40209 1.79042L4.40209 1.79044L4.40209 1.79042Z" fill="white" stroke="#A4A4A4"/>
</svg>
