<svg width="25" height="22" viewBox="0 0 25 22" fill="none" xmlns="http://www.w3.org/2000/svg">
<path d="M22.6995 1.92073C22.0825 1.31149 21.35 0.82828 20.5438 0.498711C19.7376 0.169142 18.8735 -0.000323076 18.0009 4.62394e-07C17.1284 0.000324001 16.2644 0.17043 15.4585 0.500597C14.6526 0.830763 13.9204 1.31452 13.3039 1.92422L12.4991 2.72857L11.701 1.92596L11.6958 1.92084C11.0791 1.31188 10.347 0.828831 9.54124 0.499267C8.73549 0.169703 7.87189 7.80514e-05 6.99974 7.80514e-05C6.1276 7.80514e-05 5.264 0.169703 4.45825 0.499267C3.6525 0.828831 2.92037 1.31188 2.30368 1.92084L1.94516 2.27486C0.699694 3.50468 0 5.17269 0 6.91192C0 8.65116 0.699694 10.3192 1.94516 11.549L11.4075 20.8924L12.476 21.9979L12.5015 21.9727L12.5292 22L13.5303 20.9569L23.058 11.5488C24.3016 10.318 25 8.6504 25 6.91177C25 5.17314 24.3016 3.50551 23.058 2.2747L22.6995 1.92073ZM21.8837 10.3896L12.5015 19.6542L3.1191 10.3896C2.185 9.46722 1.66023 8.21622 1.66023 6.9118C1.66023 5.60737 2.185 4.35637 3.1191 3.434L3.47767 3.07998C4.41131 2.15807 5.67746 1.63993 6.99782 1.63944C8.31819 1.63895 9.58473 2.15615 10.5191 3.07737L12.4955 5.06454L14.4813 3.07998C14.9439 2.62326 15.4929 2.26098 16.0973 2.0138C16.7016 1.76663 17.3493 1.63941 18.0034 1.63941C18.6575 1.63941 19.3052 1.76663 19.9095 2.0138C20.5138 2.26098 21.0629 2.62326 21.5254 3.07998L21.884 3.43395C22.8166 4.35708 23.3404 5.60783 23.3404 6.91181C23.3403 8.21579 22.8165 9.46651 21.8837 10.3896Z" fill="white"/>
</svg>
